<?xml version="1.0" encoding="UTF-8"?>
<svg id="Layer_1" data-name="Layer 1" xmlns="http://www.w3.org/2000/svg" viewBox="0 0 3292.38 1061.94">
  <defs>
    <style>
      .cls-1 {
        fill: #2a4df5;
      }
    </style>
  </defs>
  <g>
    <path class="cls-1" d="M124.53,880.32c-12.08-5.42-26.48-8.13-43.17-8.13H.61v186.55h43.44v-51.43h37.31c16.7,0,31.09-2.75,43.17-8.26,12.08-5.5,21.41-13.28,27.98-23.32,6.57-10.03,9.86-22.07,9.86-36.11s-3.29-25.85-9.86-35.98c-6.57-10.13-15.9-17.9-27.98-23.32ZM108.81,963.6c-6.75,5.69-16.7,8.53-29.85,8.53h-34.91v-64.76h34.91c13.15,0,23.1,2.8,29.85,8.39,6.75,5.6,10.13,13.55,10.13,23.85s-3.38,18.3-10.13,23.98Z"/>
    <path class="cls-1" d="M296.96,998.64c12.08-5.24,21.41-12.88,27.98-22.92,6.57-10.03,9.86-22.07,9.86-36.11,0-20.96-7.2-37.44-21.59-49.44-14.39-11.99-34.56-17.99-60.5-17.99h-79.68v186.55h43.44v-52.23h37.31c.64,0,1.26-.03,1.89-.04l36.22,52.27h46.37l-41.57-59.99c.09-.04.18-.07.26-.1ZM281.23,915.76c6.75,5.6,10.13,13.55,10.13,23.85s-3.38,18.3-10.13,23.98c-6.75,5.69-16.7,8.53-29.85,8.53h-34.91v-64.76h34.91c13.15,0,23.1,2.8,29.85,8.39Z"/>
    <path class="cls-1" d="M512.28,896.17c-9.24-8.7-20.03-15.41-32.38-20.12-12.35-4.71-25.9-7.06-40.64-7.06s-28.3,2.4-40.64,7.2c-12.35,4.8-23.14,11.55-32.38,20.25-9.24,8.71-16.39,18.88-21.45,30.51-5.06,11.64-7.59,24.48-7.59,38.51s2.53,26.65,7.59,38.38c5.06,11.73,12.21,21.94,21.45,30.65,9.24,8.71,20.07,15.46,32.51,20.25,12.43,4.8,26.03,7.2,40.77,7.2s28.02-2.36,40.37-7.06c12.35-4.71,23.14-11.41,32.38-20.12,9.24-8.7,16.39-18.96,21.45-30.78,5.06-11.81,7.59-24.65,7.59-38.51s-2.53-26.92-7.59-38.64c-5.06-11.73-12.22-21.94-21.45-30.65ZM493.23,989.58c-2.93,7.2-7.06,13.5-12.39,18.92-5.33,5.42-11.51,9.59-18.52,12.53-7.02,2.93-14.7,4.4-23.05,4.4s-16.08-1.47-23.19-4.4c-7.11-2.93-13.28-7.1-18.52-12.53-5.24-5.42-9.33-11.73-12.26-18.92-2.93-7.2-4.4-15.23-4.4-24.12s1.47-16.92,4.4-24.12c2.93-7.2,7.02-13.5,12.26-18.92,5.24-5.42,11.41-9.59,18.52-12.53,7.1-2.93,14.83-4.4,23.19-4.4s16.03,1.47,23.05,4.4c7.02,2.93,13.19,7.11,18.52,12.53,5.33,5.42,9.46,11.73,12.39,18.92,2.93,7.2,4.4,15.24,4.4,24.12s-1.47,16.92-4.4,24.12Z"/>
    <path class="cls-1" d="M677.78,880.32c-12.08-5.42-26.48-8.13-43.17-8.13h-80.75v186.55h43.44v-51.43h37.31c16.7,0,31.09-2.75,43.17-8.26,12.08-5.5,21.41-13.28,27.98-23.32,6.57-10.03,9.86-22.07,9.86-36.11s-3.29-25.85-9.86-35.98c-6.57-10.13-15.9-17.9-27.98-23.32ZM662.05,963.6c-6.75,5.69-16.7,8.53-29.85,8.53h-34.91v-64.76h34.91c13.15,0,23.1,2.8,29.85,8.39,6.75,5.6,10.13,13.55,10.13,23.85s-3.38,18.3-10.13,23.98Z"/>
    <polygon class="cls-1" points="769.19 980.92 855.8 980.92 855.8 947.08 769.19 947.08 769.19 906.83 867.26 906.83 867.26 872.19 726.28 872.19 726.28 1058.74 870.72 1058.74 870.72 1024.09 769.19 1024.09 769.19 980.92"/>
    <path class="cls-1" d="M1319.24,872.19l-49.94,82.6-49.73-82.6h-182.29v31.52c-3.2-5.01-7.18-9.52-11.99-13.53-14.39-11.99-34.56-17.99-60.5-17.99h-79.68v186.55h43.44v-52.23h37.31c.64,0,1.26-.03,1.89-.04l36.22,52.27h46.37l-41.57-59.99c.09-.04.18-.07.26-.1,12.08-5.24,21.41-12.88,27.98-22.92,6.57-10.03,9.86-22.07,9.86-36.11,0-12.29-2.5-23.04-7.45-32.25h57.55v151.37h43.17v-151.37h54.55l51.26,84.93v66.44h43.44v-66.55l71.95-120h-42.11ZM993.31,915.76c6.75,5.6,10.13,13.55,10.13,23.85s-3.38,18.3-10.13,23.98c-6.75,5.69-16.7,8.53-29.85,8.53h-34.91v-64.76h34.91c13.15,0,23.1,2.8,29.85,8.39Z"/>
    <path class="cls-1" d="M1833.84,1057.55l-83.15-185.36h-42.64l-82.88,186.54v-186.54h-35.98l-68.45,115.81-69.86-115.81h-35.71v186.55h40.24v-110.03l54.9,90.05h19.19l54.96-91.28.48,111.27h84.48l16.62-39.97h86.41l16.62,39.97h88.21v-186.55h-43.44v185.36ZM1699.67,985.98l29.57-71.11,29.57,71.11h-59.15Z"/>
    <polygon class="cls-1" points="2029.71 985.37 1936.97 872.19 1901.26 872.19 1901.26 1058.74 1943.9 1058.74 1943.9 945.56 2036.64 1058.74 2072.35 1058.74 2072.35 872.19 2029.71 872.19 2029.71 985.37"/>
    <polygon class="cls-1" points="2075.55 907.37 2135.25 907.37 2135.25 1058.74 2178.42 1058.74 2178.42 907.37 2238.12 907.37 2238.12 872.19 2075.55 872.19 2075.55 907.37"/>
    <polygon class="cls-1" points="2284.22 980.92 2370.83 980.92 2370.83 947.08 2284.22 947.08 2284.22 906.83 2382.29 906.83 2382.29 872.19 2241.31 872.19 2241.31 1058.74 2385.76 1058.74 2385.76 1024.09 2284.22 1024.09 2284.22 980.92"/>
    <path class="cls-1" d="M2908.09,985.37l-92.74-113.18h-35.71v185.36l-83.15-185.36h-42.64l-82.61,185.95v-185.95h-42.64v113.18l-92.74-113.18h-35.71v186.55h42.64v-113.18l92.74,113.18h79.68l16.62-39.97h86.41l16.62,39.97h87.41v-113.18l92.74,113.18h35.71v-186.55h-42.64v113.18ZM2645.46,985.98l29.57-71.11,29.57,71.11h-59.15Z"/>
    <path class="cls-1" d="M3023.75,922.29c5.33-5.33,11.63-9.46,18.92-12.39,7.28-2.93,15.28-4.4,23.98-4.4,9.24,0,17.81,1.87,25.72,5.6,7.9,3.73,14.97,9.24,21.19,16.52l27.98-25.58c-8.89-10.83-19.9-19.05-33.04-24.65-13.15-5.6-27.81-8.39-43.97-8.39-14.39,0-27.76,2.36-40.11,7.06-12.35,4.71-23.1,11.42-32.25,20.12-9.15,8.71-16.26,18.92-21.32,30.65-5.06,11.73-7.59,24.61-7.59,38.64s2.53,26.92,7.59,38.64c5.06,11.73,12.13,21.94,21.19,30.65,9.06,8.71,19.76,15.42,32.11,20.12,12.35,4.71,25.72,7.06,40.11,7.06,16.34,0,31.09-2.84,44.24-8.53,13.15-5.68,24.16-13.95,33.04-24.78l-27.98-25.58c-6.22,7.29-13.28,12.84-21.19,16.66-7.91,3.82-16.48,5.73-25.72,5.73-8.71,0-16.7-1.47-23.98-4.4-7.29-2.93-13.59-7.06-18.92-12.39-5.33-5.33-9.46-11.63-12.39-18.92-2.93-7.28-4.4-15.36-4.4-24.25s1.47-16.96,4.4-24.25c2.93-7.28,7.06-13.59,12.39-18.92Z"/>
    <polygon class="cls-1" points="3190.84 1024.09 3190.84 980.92 3277.46 980.92 3277.46 947.08 3190.84 947.08 3190.84 906.83 3288.92 906.83 3288.92 872.19 3147.94 872.19 3147.94 1058.74 3292.38 1058.74 3292.38 1024.09 3190.84 1024.09"/>
  </g>
  <polygon class="cls-1" points="168.72 334.24 398.9 711.77 479.35 711.77 709.77 329.05 711.77 795.57 880.49 795.57 880.49 13.41 729.64 13.41 442.64 498.97 149.73 13.41 0 13.41 0 795.57 168.72 795.57 168.72 334.24"/>
  <polygon class="cls-1" points="1162.05 321.05 1550.9 795.57 1700.63 795.57 1700.63 13.41 1521.85 13.41 1521.85 487.93 1133 13.41 983.27 13.41 983.27 795.57 1162.05 795.57 1162.05 321.05"/>
  <path class="cls-1" d="M1873.82,695.01c37.99,36.51,82.86,64.63,134.64,84.36,51.77,19.73,107.83,29.61,168.16,29.61,68.53,0,130.35-11.92,185.48-35.76,55.12-23.83,101.3-58.47,138.55-103.92l-117.32-107.27c-26.08,30.55-55.69,53.83-88.83,69.84-33.16,16.03-69.1,24.02-107.83,24.02-36.51,0-70.03-6.15-100.56-18.44-30.55-12.29-56.98-29.61-79.33-51.96-22.35-22.35-39.67-48.78-51.96-79.33-12.29-30.54-18.44-64.42-18.44-101.68s6.15-71.13,18.44-101.68c12.29-30.54,29.61-56.99,51.96-79.33,22.35-22.35,48.78-39.67,79.33-51.96,30.54-12.29,64.06-18.44,100.56-18.44,38.73,0,74.67,7.82,107.83,23.46,33.14,15.64,62.75,38.74,88.83,69.28l117.32-107.27c-37.26-45.43-83.44-79.89-138.55-103.36-55.13-23.47-116.59-35.2-184.37-35.2-60.34,0-116.4,9.88-168.16,29.61-51.78,19.75-96.85,47.87-135.2,84.36-38.38,36.51-68.16,79.33-89.39,128.5-21.23,49.16-31.85,103.18-31.85,162.02s10.61,112.86,31.85,162.02c21.23,49.16,50.84,92.01,88.83,128.5Z"/>
  <polygon class="cls-1" points="2707.38 596.96 2811.23 488.55 3062.7 795.57 3275.01 795.57 2931.61 362.46 3254.89 13.41 3053.76 13.41 2707.38 378.41 2707.38 13.41 2527.48 13.41 2527.48 795.57 2707.38 795.57 2707.38 596.96"/>
</svg>